<?xml version="1.0" encoding="UTF-8" standalone="no"?>
<!-- Created with Inkscape (http://www.inkscape.org/) -->
<svg
   xmlns:svg="http://www.w3.org/2000/svg"
   xmlns="http://www.w3.org/2000/svg"
   version="1.0"
   width="1133.8583"
   height="393.30707"
   id="svg2">
  <defs
     id="defs4">
    <clipPath
       id="clipPath2349">
      <path
         d="M -85.5,-19 L -85.5,19 L 85.5,19 L 85.5,-19 L -85.5,-19 z"
         id="path2351" />
    </clipPath>
    <clipPath
       id="clipPath2341">
      <path
         d="M 0,0 L 603.7795,0 L 603.7795,841.8898 L 0,841.8898 L 0,0 z"
         id="path2343" />
    </clipPath>
    <clipPath
       id="clipPath2926">
      <path
         d="M 0.015,840.99 L 595.005,840.99 L 595.005,0 L 0.015,0 L 0.015,840.99 z"
         id="path2928" />
    </clipPath>
    <clipPath
       id="clipPath2918">
      <path
         d="M 0,841 L 595,841 L 595,0 L 0,0 L 0,841 z"
         id="path2920" />
    </clipPath>
    <clipPath
       id="clipPath2694">
      <path
         d="M 0.015,840.99 L 595.005,840.99 L 595.005,0 L 0.015,0 L 0.015,840.99 z"
         id="path2696" />
    </clipPath>
    <clipPath
       id="clipPath2686">
      <path
         d="M 0,841 L 595,841 L 595,0 L 0,0 L 0,841 z"
         id="path2688" />
    </clipPath>
    <clipPath
       id="clipPath2678">
      <path
         d="M 405.35,120.15 L 510.24,120.15 L 510.24,91.8 L 405.35,91.8 L 405.35,120.15 z"
         id="path2680" />
    </clipPath>
    <clipPath
       id="clipPath2498">
      <path
         d="M 0.015,840.99 L 595.005,840.99 L 595.005,0 L 0.015,0 L 0.015,840.99 z"
         id="path2500" />
    </clipPath>
    <clipPath
       id="clipPath2490">
      <path
         d="M 0,841 L 595,841 L 595,0 L 0,0 L 0,841 z"
         id="path2492" />
    </clipPath>
    <clipPath
       id="clipPath2482">
      <path
         d="M 51.02,680.71 L 595.28,680.71 L 595.28,126.67 L 51.02,126.67 L 51.02,680.71 z"
         id="path2484" />
    </clipPath>
    <clipPath
       id="clipPath2464">
      <path
         d="M 0.015,840.99 L 595.005,840.99 L 595.005,0 L 0.015,0 L 0.015,840.99 z"
         id="path2466" />
    </clipPath>
    <clipPath
       id="clipPath2456">
      <path
         d="M 0,841 L 595,841 L 595,0 L 0,0 L 0,841 z"
         id="path2458" />
    </clipPath>
    <clipPath
       id="clipPath5050">
      <path
         d="M -610.389,657.405 L -56.916,657.405 L -56.916,664.488 L -610.389,664.488 L -610.389,657.405 z"
         id="path5052" />
    </clipPath>
    <clipPath
       id="clipPath5036">
      <path
         d="M 303.624,657.405 L 362.034,657.405 L 362.034,664.488 L 303.624,664.488 L 303.624,657.405 z"
         id="path5038" />
    </clipPath>
    <clipPath
       id="clipPath5028">
      <path
         d="M 303.624,657.405 L 362.034,657.405 L 362.034,664.488 L 303.624,664.488 L 303.624,657.405 z"
         id="path5030" />
    </clipPath>
    <clipPath
       id="clipPath5016">
      <path
         d="M 271.575,657.405 L 329.985,657.405 L 329.985,664.488 L 271.575,664.488 L 271.575,657.405 z"
         id="path5018" />
    </clipPath>
    <clipPath
       id="clipPath5008">
      <path
         d="M 271.575,657.405 L 329.985,657.405 L 329.985,664.488 L 271.575,664.488 L 271.575,657.405 z"
         id="path5010" />
    </clipPath>
    <clipPath
       id="clipPath4996">
      <path
         d="M 204.345,657.405 L 262.755,657.405 L 262.755,664.488 L 204.345,664.488 L 204.345,657.405 z"
         id="path4998" />
    </clipPath>
    <clipPath
       id="clipPath4988">
      <path
         d="M 204.345,657.405 L 262.755,657.405 L 262.755,664.488 L 204.345,664.488 L 204.345,657.405 z"
         id="path4990" />
    </clipPath>
    <clipPath
       id="clipPath4972">
      <path
         d="M 375.417,657.405 L 433.827,657.405 L 433.827,664.488 L 375.417,664.488 L 375.417,657.405 z"
         id="path4974" />
    </clipPath>
    <clipPath
       id="clipPath4964">
      <path
         d="M 375.417,657.405 L 433.827,657.405 L 433.827,664.488 L 375.417,664.488 L 375.417,657.405 z"
         id="path4966" />
    </clipPath>
    <clipPath
       id="clipPath4950">
      <path
         d="M 88.236,657.405 L 146.646,657.405 L 146.646,664.488 L 88.236,664.488 L 88.236,657.405 z"
         id="path4952" />
    </clipPath>
    <clipPath
       id="clipPath4942">
      <path
         d="M 88.236,657.405 L 146.646,657.405 L 146.646,664.488 L 88.236,664.488 L 88.236,657.405 z"
         id="path4944" />
    </clipPath>
    <clipPath
       id="clipPath4928">
      <path
         d="M 40.806,657.405 L 99.216,657.405 L 99.216,664.488 L 40.806,664.488 L 40.806,657.405 z"
         id="path4930" />
    </clipPath>
    <clipPath
       id="clipPath4920">
      <path
         d="M 40.806,657.405 L 99.216,657.405 L 99.216,664.488 L 40.806,664.488 L 40.806,657.405 z"
         id="path4922" />
    </clipPath>
    <clipPath
       id="clipPath4906">
      <path
         d="M 11.313,657.405 L 69.723,657.405 L 69.723,664.488 L 11.313,664.488 L 11.313,657.405 z"
         id="path4908" />
    </clipPath>
    <clipPath
       id="clipPath4898">
      <path
         d="M 11.313,657.405 L 69.723,657.405 L 69.723,664.488 L 11.313,664.488 L 11.313,657.405 z"
         id="path4900" />
    </clipPath>
    <clipPath
       id="clipPath4886">
      <path
         d="M -36.117,657.405 L 22.293,657.405 L 22.293,664.488 L -36.117,664.488 L -36.117,657.405 z"
         id="path4888" />
    </clipPath>
    <clipPath
       id="clipPath4878">
      <path
         d="M -36.117,657.405 L 22.293,657.405 L 22.293,664.488 L -36.117,664.488 L -36.117,657.405 z"
         id="path4880" />
    </clipPath>
    <clipPath
       id="clipPath4868">
      <path
         d="M -56.916,657.405 L 480.267,657.405 L 480.267,664.488 L -56.916,664.488 L -56.916,657.405 z"
         id="path4870" />
    </clipPath>
    <clipPath
       id="clipPath4850">
      <path
         d="M -638.505,812.124 L 637.083,812.124 L 637.083,-38.268 L -638.505,-38.268 L -638.505,812.124 z"
         id="path4852" />
    </clipPath>
    <clipPath
       id="clipPath4842">
      <path
         d="M -638.505,812.124 L 637.083,812.124 L 637.083,-38.268 L -638.505,-38.268 L -638.505,812.124 z"
         id="path4844" />
    </clipPath>
    <clipPath
       id="clipPath4834">
      <path
         d="M 0,-38.268 L 625.986,-38.268 L 625.986,812.124 L 0,812.124 L 0,-38.268 z"
         id="path4836" />
    </clipPath>
    <clipPath
       id="clipPath4824">
      <path
         d="M 0,0 L 595.278,0 L 595.278,779.526 L 0,779.526 L 0,0 z"
         id="path4826" />
    </clipPath>
    <clipPath
       id="clipPath4816">
      <path
         d="M 0,0 L 595.276,0 L 595.276,779.528 L 0,779.528 L 0,0 z"
         id="path4818" />
    </clipPath>
    <clipPath
       id="clipPath8672">
      <path
         d="M 0.03,841.98 L 595.05,841.98 L 595.05,0 L 0.03,0 L 0.03,841.98 z"
         id="path8674" />
    </clipPath>
    <clipPath
       id="clipPath8664">
      <path
         d="M 0,842 L 595.276,842 L 595.276,0.11 L 0,0.11 L 0,842 z"
         id="path8666" />
    </clipPath>
    <clipPath
       id="clipPath8656">
      <path
         d="M 407.48,65.307 L 518.032,65.307 L 518.032,34.126 L 407.48,34.126 L 407.48,65.307 z"
         id="path8658" />
    </clipPath>
    <clipPath
       id="clipPath8821">
      <path
         d="M 360,106.963 L 537,106.963 L 537,190.963 L 360,190.963 L 360,106.963 z"
         id="path8823" />
    </clipPath>
    <clipPath
       id="clipPath9173">
      <path
         d="M 1023.572,801.865 L 1069.32,801.865 L 1069.32,776.987 L 1023.572,776.987 L 1023.572,801.865 z"
         id="path9175" />
    </clipPath>
    <clipPath
       id="clipPath9165">
      <path
         d="M 1023.307,771.472 L 1176.292,771.472 L 1176.292,801.989 L 1023.307,801.989 L 1023.307,771.472 z"
         id="path9167" />
    </clipPath>
    <clipPath
       id="clipPath9155">
      <path
         d="M 398.268,771.472 L 551.253,771.472 L 551.253,801.989 L 398.268,801.989 L 398.268,771.472 z"
         id="path9157" />
    </clipPath>
    <clipPath
       id="clipPath9147">
      <path
         d="M 0,0 L 1220.315,0 L 1220.315,841.89 L 0,841.89 L 0,0 z"
         id="path9149" />
    </clipPath>
    <clipPath
       id="clipPath9400">
      <path
         d="M -316.714,-409.878 L -174.982,-409.878 L -174.982,630.58 L -316.714,630.58 L -316.714,-409.878 z"
         id="path9402" />
    </clipPath>
    <clipPath
       id="clipPath9392">
      <path
         d="M -316.714,-409.878 L -174.982,-409.878 L -174.982,630.58 L -316.714,630.58 L -316.714,-409.878 z"
         id="path9394" />
    </clipPath>
    <clipPath
       id="clipPath9384">
      <path
         d="M -14.173,-14.173 L 133.955,-14.173 L 133.955,856.063 L -14.173,856.063 L -14.173,-14.173 z"
         id="path9386" />
    </clipPath>
    <clipPath
       id="clipPath9376">
      <path
         d="M -1179.498,269.51 L -35.955,269.51 L -35.955,-1315.529 L -1179.498,-1315.529 L -1179.498,269.51 z"
         id="path9378" />
    </clipPath>
    <clipPath
       id="clipPath9368">
      <path
         d="M -14.173,-14.173 L 595.276,-14.173 L 595.276,856.063 L -14.173,856.063 L -14.173,-14.173 z"
         id="path9370" />
    </clipPath>
    <clipPath
       id="clipPath9360">
      <path
         d="M 0,0 L 595.276,0 L 595.276,841.89 L 0,841.89 L 0,0 z"
         id="path9362" />
    </clipPath>
    <clipPath
       id="clipPath19120">
      <path
         d="M 0.03,1191.03 L 842.01,1191.03 L 842.01,0.03 L 0.03,0.03 L 0.03,1191.03 z"
         id="path19122" />
    </clipPath>
    <clipPath
       id="clipPath19112">
      <path
         d="M -1,894 L 843,894 L 843,297 L -1,297 L -1,894 z"
         id="path19114" />
    </clipPath>
    <clipPath
       id="clipPath19010">
      <path
         d="M 0.03,1191.03 L 842.01,1191.03 L 842.01,0.03 L 0.03,0.03 L 0.03,1191.03 z"
         id="path19012" />
    </clipPath>
    <clipPath
       id="clipPath19002">
      <path
         d="M -1,894 L 843,894 L 843,297 L -1,297 L -1,894 z"
         id="path19004" />
    </clipPath>
    <clipPath
       id="clipPath18994">
      <path
         d="M 730.77,521.53 L 842,521.53 L 842,296.87 L 730.77,296.87 L 730.77,521.53 z"
         id="path18996" />
    </clipPath>
  </defs>
  <g
     transform="translate(-2982.3049,698.74136)"
     id="layer1">
    <g
       transform="translate(35.433107,35.479778)"
       id="g19563">
      <path
         d="M 3002.2594,-421.73498 L 3002.2594,-597.44162 L 4045.297,-597.44162 L 4045.297,-421.73498 L 3002.2594,-421.73498 z"
         id="path19014"
         style="fill:#0450a1;fill-opacity:1;fill-rule:nonzero;stroke:none" />
      <path
         d="M 3851.4712,-456.15064 L 3002.2934,-456.15064 L 3002.2934,-445.15235 L 3847.4296,-445.15235 L 3851.4712,-456.15064"
         id="path19016"
         style="fill:#ffe800;fill-opacity:1;fill-rule:nonzero;stroke:none" />
      <path
         d="M 3316.4553,-556.58435 L 3288.7077,-514.4648 C 3288.7077,-514.4648 3290.4733,-536.50101 3290.9094,-541.81053 C 3291.2377,-545.8521 3290.745,-556.58435 3280.9071,-556.58435 C 3271.3581,-556.58435 3236.8746,-556.58435 3236.8746,-556.58435 L 3207.9948,-478.14722 L 3242.4272,-478.14722 L 3263.3429,-534.88211 L 3258.9332,-478.14722 L 3289.5282,-478.14722 L 3327.0626,-533.89153 L 3306.583,-478.14722 L 3341.2364,-478.14722 L 3370.1107,-556.58435 L 3316.4553,-556.58435"
         id="path19018"
         style="fill:#ffffff;fill-opacity:1;fill-rule:nonzero;stroke:none" />
      <path
         d="M 3504.0148,-479.60196 C 3502.3334,-479.31894 3489.173,-476.78871 3475.3556,-476.40946 C 3450.699,-475.7302 3429.206,-485.5964 3429.0135,-503.39858 C 3428.6739,-534.24814 3459.8685,-551.1503 3482.8673,-555.85981 C 3493.1806,-557.96551 3513.0434,-560.2863 3532.8207,-555.40698 L 3521.3299,-527.85181 C 3518.0355,-535.35193 3509.5507,-535.49344 3506.0752,-535.56703 C 3497.6696,-535.7425 3490.7294,-533.5236 3485.6069,-531.18017 C 3473.9803,-525.85366 3463.8535,-508.77603 3480.2974,-502.1929 C 3489.4221,-498.5419 3501.0374,-501.45704 3513.1567,-503.37594 L 3504.0148,-479.60196"
         id="path19020"
         style="fill:#ffffff;fill-opacity:1;fill-rule:nonzero;stroke:none" />
      <path
         d="M 3857.3526,-478.14722 L 3819.3482,-478.14722 L 3848.1994,-556.58435 L 3886.2151,-556.58435 L 3857.3526,-478.14722"
         id="path19022"
         style="fill:#ffffff;fill-opacity:1;fill-rule:nonzero;stroke:none" />
      <path
         d="M 3401.1301,-478.14722 L 3363.1198,-478.14722 L 3392.0167,-556.58435 L 3429.9871,-556.58435 L 3401.1301,-478.14722"
         id="path19024"
         style="fill:#ffffff;fill-opacity:1;fill-rule:nonzero;stroke:none" />
      <path
         d="M 3606.1183,-556.58435 L 3595.6519,-528.33295 L 3576.5426,-528.33295 L 3586.9348,-556.58435 L 3550.6969,-556.58435 L 3521.9073,-478.14156 L 3558.0098,-478.14156 L 3567.8649,-504.72313 L 3587.0027,-504.72313 L 3577.1594,-478.14156 L 3613.3356,-478.14156 L 3642.2602,-556.58435 L 3606.1183,-556.58435"
         id="path19026"
         style="fill:#ffffff;fill-opacity:1;fill-rule:nonzero;stroke:none" />
      <path
         d="M 3780.1606,-504.20237 L 3799.412,-556.58435 L 3762.4718,-556.58435 L 3733.5749,-478.14156 L 3807.7895,-478.14156 L 3817.3838,-504.20237 L 3780.1606,-504.20237"
         id="path19028"
         style="fill:#ffffff;fill-opacity:1;fill-rule:nonzero;stroke:none" />
      <path
         d="M 3979.8905,-556.58435 L 3960.0788,-502.75329 C 3960.3505,-508.17602 3961.4314,-529.58391 3962.0939,-541.91808 C 3962.3656,-546.98986 3961.2675,-550.86728 3958.8276,-553.44279 C 3955.8846,-556.55039 3951.9785,-556.58435 3951.9391,-556.58435 L 3907.7987,-556.58435 L 3878.9416,-478.14156 L 3910.9912,-478.14156 L 3931.4482,-533.69341 L 3929.0309,-478.14156 L 3982.7999,-478.14156 L 4011.6625,-556.58435 L 3979.8905,-556.58435"
         id="path19030"
         style="fill:#ffffff;fill-opacity:1;fill-rule:nonzero;stroke:none" />
      <path
         d="M 3678.4704,-499.31738 L 3681.7196,-508.02884 L 3722.9844,-508.02884 L 3730.0767,-527.33671 L 3688.8065,-527.33671 L 3691.9704,-536.04251 L 3735.2902,-536.04251 L 3742.9147,-556.58435 L 3663.6966,-556.58435 L 3634.8223,-478.14156 L 3714.9352,-478.14156 L 3722.7014,-499.31738 L 3678.4704,-499.31738"
         id="path19032"
         style="fill:#ffffff;fill-opacity:1;fill-rule:nonzero;stroke:none" />
      <path
         d="M 3211.2041,-520.87245 C 3213.3836,-524.15552 3210.9211,-531.01601 3206.1382,-536.6878 C 3201.6664,-541.986 3195.7963,-543.43508 3195.4118,-546.05022 C 3201.0945,-557.79003 3194.9586,-567.95624 3186.0834,-571.78838 C 3186.4284,-577.35828 3184.2322,-582.91686 3179.6132,-587.049 C 3181.7303,-591.53209 3184.0565,-604.76627 3174.3377,-613.04754 C 3178.1922,-629.42894 3161.6523,-638.64418 3152.7088,-639.47627 C 3148.3842,-642.53293 3142.1296,-644.56504 3134.5446,-645.37448 C 3140.0692,-653.66141 3138.6541,-664.96537 3131.9294,-671.02773 C 3132.3089,-680.07316 3126.1558,-688.56953 3116.9066,-691.77335 C 3113.8499,-699.33008 3097.0102,-698.11308 3095.0458,-691.1224 C 3085.3325,-687.62989 3079.485,-676.71084 3080.493,-667.09937 C 3074.5264,-660.74832 3074.7927,-649.72738 3080.2946,-642.7084 C 3075.1323,-642.82727 3067.915,-641.44046 3062.7811,-639.37438 C 3062.7753,-639.37438 3062.7753,-639.38005 3062.7753,-639.38005 C 3062.6847,-639.40835 3062.5434,-639.44797 3062.5434,-639.44231 C 3058.3433,-641.49706 3053.7076,-642.25556 3049.1055,-641.6782 C 3047.8769,-642.45368 3044.8941,-643.78389 3042.9355,-644.28201 C 3041.1527,-646.92545 3038.8428,-649.07077 3036.0637,-650.66702 C 3034.9656,-655.2237 3031.0313,-658.90867 3027.4938,-660.66907 C 3027.8447,-664.08234 3026.5089,-668.33901 3025.3768,-670.30885 C 3023.3222,-673.89193 3023.8258,-679.22409 3024.4312,-679.9826 C 3026.7692,-682.90906 3024.7428,-685.58646 3023.6899,-686.61667 C 3018.3351,-691.86392 3013.0483,-689.09595 3011.5027,-686.66195 C 3006.4029,-695.74134 3000.5613,-698.15836 2997.0857,-696.964 C 2992.5574,-700.52444 2985.3065,-698.32818 2985.4138,-693.97528 C 2982.4419,-691.89222 2980.3987,-690.9073 2985.0516,-682.42226 C 2984.1233,-664.71631 2986.0818,-659.44075 2997.7423,-649.91984 C 2994.1196,-646.44997 2992.1779,-638.5706 2995.6933,-632.88183 C 2994.7649,-624.38546 2999.282,-616.24004 3004.9651,-611.92111 C 3006.5727,-599.70581 3018.4085,-592.48305 3026.1751,-590.86982 C 3031.3882,-583.28479 3039.0352,-579.5036 3046.3997,-578.76773 C 3046.8245,-575.37145 3048.126,-572.0714 3050.2602,-568.9355 C 3048.3415,-561.9618 3048.5281,-555.48056 3050.809,-549.6333 C 3045.3582,-543.69546 3043.4282,-535.02362 3046.0203,-525.85932 C 3039.6411,-518.28561 3037.4616,-506.31938 3041.9506,-496.34563 C 3041.9167,-496.29469 3039.9128,-493.41351 3039.2843,-490.92856 C 3034.7618,-488.72098 3030.6016,-483.80769 3028.2976,-477.88684 C 3026.4237,-473.00752 3027.1541,-466.54326 3028.2523,-461.40921 C 3021.3239,-455.57327 3017.2424,-440.81076 3029.7634,-428.85019 C 3027.0464,-420.38213 3021.2048,-412.93295 3014.2596,-404.07432 C 3009.335,-397.79119 3008.4687,-394.40623 3014.1749,-386.96838 C 3018.6182,-381.16639 3026.5655,-376.7116 3033.0918,-376.45122 C 3045.9754,-375.94178 3054.8166,-378.74937 3056.2204,-387.91367 C 3057.0528,-393.34773 3053.5093,-404.43659 3053.2036,-407.12531 C 3052.9034,-409.81403 3053.9223,-414.05372 3056.5093,-420.80666 C 3068.0567,-423.47275 3074.1981,-432.04836 3074.8946,-440.42585 C 3083.6968,-445.3165 3089.7589,-455.27893 3086.9966,-466.3508 C 3088.5644,-468.36593 3089.0743,-469.54897 3090.008,-472.51506 C 3090.008,-467.63573 3093.3024,-464.38662 3094.8534,-461.53941 C 3089.7644,-449.17128 3096.4777,-437.90694 3103.9554,-433.0729 C 3091.0495,-414.77826 3104.991,-405.90831 3108.7102,-402.05919 C 3113.0914,-397.52515 3113.7195,-389.82691 3121.0047,-387.21744 C 3127.2879,-384.96457 3147.5695,-387.11555 3151.5033,-395.6855 C 3152.5163,-397.88176 3153.4392,-400.33275 3152.3465,-401.96862 C 3152.5109,-408.10457 3148.5486,-412.58766 3141.6374,-416.53301 C 3133.8766,-420.97082 3134.0351,-419.73684 3130.3106,-431.48797 C 3142.3728,-437.31826 3144.5124,-451.1015 3143.907,-456.52989 C 3152.3465,-467.00742 3151.8317,-475.96228 3147.196,-482.21144 C 3148.6899,-486.53038 3148.4693,-490.52101 3147.3825,-493.99088 C 3154.3109,-500.60797 3157.69,-510.12322 3154.8598,-520.22716 C 3159.0771,-526.44801 3160.6054,-533.43303 3158.8733,-541.05202 C 3162.5354,-535.52175 3168.1958,-533.26888 3174.666,-533.47266 C 3174.7054,-533.32548 3175.232,-531.51413 3175.5545,-530.69336 C 3173.6697,-527.17821 3174.5243,-522.96116 3179.4606,-519.32714 C 3179.9017,-517.70259 3180.7906,-516.412 3182.0699,-515.52331 C 3182.002,-513.84215 3186.1961,-506.93637 3191.2571,-510.63266 C 3191.387,-510.72889 3196.8491,-514.21008 3197.1892,-514.43084 C 3201.4568,-510.55907 3212.2515,-513.64403 3211.2041,-520.87245"
         id="path19034"
         style="fill:#292526;fill-opacity:1;fill-rule:nonzero;stroke:none" />
      <path
         d="M 3162.0431,-555.56547 C 3175.4752,-556.7202 3187.6851,-571.59026 3175.8207,-582.95648 C 3174.1452,-580.59607 3170.3355,-577.62432 3167.9586,-576.70166 C 3167.0923,-570.97893 3163.6675,-566.03168 3161.1882,-563.29767 C 3161.6637,-561.2599 3162.0373,-555.91076 3162.0431,-555.56547"
         id="path19036"
         style="fill:#ffffff;fill-opacity:1;fill-rule:nonzero;stroke:none" />
      <path
         d="M 3183.836,-566.66565 C 3180.5642,-558.02211 3171.7905,-553.26732 3161.8394,-552.03334 C 3160.3563,-544.91813 3169.4978,-534.35003 3183.2867,-540.53126 C 3193.068,-544.92379 3196.8491,-560.85801 3183.836,-566.66565"
         id="path19038"
         style="fill:#ffffff;fill-opacity:1;fill-rule:nonzero;stroke:none" />
      <path
         d="M 3179.8963,-529.30089 C 3178.6849,-527.98766 3179.0359,-525.1461 3180.7227,-524.07062 C 3180.7739,-524.26307 3181.5491,-527.2801 3182.347,-528.45748 C 3181.4586,-529.57259 3180.3545,-529.79901 3179.8963,-529.30089"
         id="path19040"
         style="fill:#ffffff;fill-opacity:1;fill-rule:nonzero;stroke:none" />
      <path
         d="M 3188.6587,-522.92154 C 3187.7702,-524.50647 3188.2624,-526.31782 3185.7379,-527.2235 C 3183.1399,-528.15747 3182.9529,-519.80828 3184.9794,-520.10829 C 3185.8398,-521.13849 3187.0285,-522.04417 3188.6587,-522.92154"
         id="path19042"
         style="fill:#ffffff;fill-opacity:1;fill-rule:nonzero;stroke:none" />
      <path
         d="M 3192.151,-521.74982 C 3188.6641,-520.69131 3185.8624,-518.02523 3187.2263,-515.78935 C 3187.8549,-514.75348 3188.2679,-514.79311 3190.4474,-516.12898 C 3191.8231,-516.97805 3193.9342,-518.68185 3194.3531,-518.98751 C 3193.6399,-520.52716 3192.151,-521.74982 3192.151,-521.74982"
         id="path19044"
         style="fill:#ffffff;fill-opacity:1;fill-rule:nonzero;stroke:none" />
      <path
         d="M 3195.5812,-537.93311 C 3194.3757,-538.61236 3192.338,-540.36145 3191.3019,-541.92374 C 3188.6247,-538.95199 3182.568,-536.1727 3180.2585,-535.55005 C 3180.3432,-535.26702 3181.1302,-532.55 3181.5038,-532.01225 C 3182.568,-531.68395 3183.7907,-530.8179 3184.5379,-529.82165 C 3186.0037,-530.25751 3189.6717,-529.66882 3190.566,-525.76876 C 3192.1623,-524.68195 3195.2869,-523.51023 3196.2718,-522.23096 C 3200.5457,-516.66672 3203.7662,-517.65164 3204.7172,-518.39316 C 3208.4758,-521.31963 3203.3474,-523.86684 3200.4718,-527.39897 C 3199.2039,-528.96126 3194.8001,-535.13683 3194.9758,-536.41044 C 3195.0604,-536.99913 3196.0454,-536.61422 3196.7133,-535.48212 C 3197.11,-534.80853 3202.9851,-528.06691 3205.9118,-525.58762 C 3203.3419,-534.42361 3195.5812,-537.93311 3195.5812,-537.93311"
         id="path19046"
         style="fill:#ffffff;fill-opacity:1;fill-rule:nonzero;stroke:none" />
      <path
         d="M 3111.8855,-550.28425 C 3162.241,-550.78237 3168.1619,-580.75456 3161.675,-592.2906 C 3146.245,-576.19222 3094.7175,-567.19773 3069.3188,-587.2075 C 3064.3833,-582.12439 3058.332,-580.33568 3052.7789,-579.69039 C 3054.511,-564.58826 3081.223,-549.98425 3111.8855,-550.28425"
         id="path19048"
         style="fill:#ffffff;fill-opacity:1;fill-rule:nonzero;stroke:none" />
      <path
         d="M 3077.8321,-613.09848 C 3078.7378,-603.47569 3074.5264,-594.13025 3072.5398,-590.84152 C 3077.0736,-587.24712 3086.7983,-580.40361 3108.6477,-580.05266 C 3141.4336,-579.52624 3176.3016,-595.52839 3156.7336,-622.17788 C 3147.9599,-611.45695 3106.5366,-601.85113 3077.8321,-613.09848"
         id="path19050"
         style="fill:#ffffff;fill-opacity:1;fill-rule:nonzero;stroke:none" />
      <path
         d="M 3034.3656,-616.78911 C 3042.0466,-624.18168 3042.7032,-633.60637 3038.9279,-640.15553 C 3038.1015,-641.58763 3037.1166,-642.9518 3035.6222,-644.18578 C 3033.641,-630.11386 3014.2143,-619.52312 3001.6988,-628.67044 C 3006.046,-609.14748 3026.0162,-608.76256 3034.3656,-616.78911"
         id="path19052"
         style="fill:#ffffff;fill-opacity:1;fill-rule:nonzero;stroke:none" />
      <path
         d="M 3050.3335,-603.52663 C 3061.8415,-616.4042 3050.1977,-636.54415 3044.7184,-637.61964 C 3048.7151,-617.94951 3028.9596,-602.54737 3011.5593,-610.1041 C 3015.7426,-598.16616 3036.3635,-587.89241 3050.3335,-603.52663"
         id="path19054"
         style="fill:#ffffff;fill-opacity:1;fill-rule:nonzero;stroke:none" />
      <path
         d="M 3034.1958,-591.21511 C 3044.4865,-580.44323 3071.3511,-581.19608 3073.066,-606.17007 C 3074.2094,-622.91374 3066.8227,-632.34974 3054.7148,-635.54791 C 3068.8945,-609.43616 3052.4225,-591.46983 3034.1958,-591.21511"
         id="path19056"
         style="fill:#ffffff;fill-opacity:1;fill-rule:nonzero;stroke:none" />
      <path
         d="M 3055.6942,-564.78637 C 3050.9508,-536.11043 3089.0743,-526.8216 3111.8855,-527.62539 C 3150.1901,-528.97824 3158.6808,-547.69176 3156.9202,-558.66175 C 3132.5009,-539.67653 3080.3906,-541.77656 3055.6942,-564.78637"
         id="path19058"
         style="fill:#ffffff;fill-opacity:1;fill-rule:nonzero;stroke:none" />
      <path
         d="M 3075.2908,-504.40048 C 3095.5381,-499.75324 3112.2197,-509.59679 3111.9534,-523.23853 C 3101.9629,-523.09701 3069.8681,-523.6291 3054.6301,-545.1502 C 3043.9884,-530.42166 3056.3056,-509.55717 3075.2908,-504.40048"
         id="path19060"
         style="fill:#ffffff;fill-opacity:1;fill-rule:nonzero;stroke:none" />
      <path
         d="M 3103.1856,-503.67594 C 3084.602,-494.10975 3059.2771,-501.02118 3049.4677,-520.75924 C 3035.9845,-498.85322 3058.9261,-479.42649 3075.5566,-480.27556 C 3096.2517,-481.33407 3102.2912,-494.47202 3103.1856,-503.67594"
         id="path19062"
         style="fill:#ffffff;fill-opacity:1;fill-rule:nonzero;stroke:none" />
      <path
         d="M 3046.1448,-491.94745 C 3039.5393,-480.32084 3047.5998,-467.71498 3056.1244,-464.3753 C 3074.1188,-457.33368 3086.2322,-469.30557 3085.4117,-477.93779 C 3070.7909,-474.39433 3055.994,-478.99063 3046.1448,-491.94745"
         id="path19064"
         style="fill:#ffffff;fill-opacity:1;fill-rule:nonzero;stroke:none" />
      <path
         d="M 3031.5299,-456.63744 C 3023.2937,-449.38072 3029.09,-431.154 3041.7921,-426.73884 C 3059.9169,-420.43873 3067.6265,-432.54648 3068.985,-439.2881 C 3064.151,-438.13336 3043.0827,-433.82575 3031.5299,-456.63744"
         id="path19066"
         style="fill:#ffffff;fill-opacity:1;fill-rule:nonzero;stroke:none" />
      <path
         d="M 3055.015,-461.16581 C 3045.5394,-466.06212 3039.8336,-473.3245 3039.081,-483.67184 C 3025.456,-470.00747 3036.7883,-448.18636 3049.4564,-443.78817 C 3074.9231,-434.94652 3083.94,-456.41102 3081.8289,-463.07339 C 3071.77,-455.96384 3059.6679,-458.76578 3055.015,-461.16581"
         id="path19068"
         style="fill:#ffffff;fill-opacity:1;fill-rule:nonzero;stroke:none" />
      <path
         d="M 3146.307,-398.04026 L 3147.0144,-397.53647 C 3145.1129,-393.27414 3129.7445,-389.77597 3123.5067,-392.67413 C 3116.1367,-396.10437 3117.2915,-400.27048 3112.5987,-404.70829 C 3102.1554,-414.58015 3103.5986,-418.69531 3105.0875,-424.21427 C 3105.7609,-426.7162 3107.1026,-428.34075 3109.2138,-431.15966 C 3116.1653,-428.34075 3119.4932,-428.9068 3125.7595,-430.53135 C 3125.8388,-430.01625 3126.2124,-428.42 3126.3482,-427.82565 C 3121.6102,-427.33319 3117.7103,-426.34826 3117.7103,-426.34826 L 3118.9158,-422.75387 C 3118.9158,-422.75387 3122.9121,-423.78407 3127.3445,-424.11804 C 3127.3445,-424.11804 3128.3122,-421.43498 3128.6744,-420.67647 C 3124.497,-420.38213 3120.6479,-419.13117 3120.6479,-419.13117 L 3121.8144,-415.70658 C 3121.8144,-415.70658 3127.2879,-417.43869 3131.6066,-417.04811 C 3135.7899,-413.00088 3153.1503,-408.64798 3144.7334,-399.99312 C 3141.3879,-396.54589 3133.1521,-395.34021 3127.1407,-395.53833 L 3126.7612,-394.63265 C 3128.0011,-392.94583 3139.9786,-392.36846 3146.307,-398.04026"
         id="path19070"
         style="fill:#ffffff;fill-opacity:1;fill-rule:nonzero;stroke:none" />
      <path
         d="M 3137.9069,-452.85624 C 3133.916,-449.68638 3127.6329,-447.05426 3119.9573,-447.29766 C 3111.2801,-447.57503 3104.991,-451.10716 3099.6023,-457.15254 C 3096.4043,-441.38247 3106.5366,-433.72386 3117.5745,-433.18045 C 3137.8616,-432.18987 3138.2746,-450.60338 3137.9069,-452.85624"
         id="path19072"
         style="fill:#ffffff;fill-opacity:1;fill-rule:nonzero;stroke:none" />
      <path
         d="M 3119.6689,-451.03357 C 3141.0994,-450.92602 3147.8408,-468.9716 3143.6806,-476.80003 C 3131.4426,-461.77148 3102.9139,-464.78285 3097.5985,-483.40014 C 3089.821,-470.45465 3102.2514,-451.11848 3119.6689,-451.03357"
         id="path19074"
         style="fill:#ffffff;fill-opacity:1;fill-rule:nonzero;stroke:none" />
      <path
         d="M 3122.5331,-470.8339 C 3133.22,-470.74899 3145.0504,-478.45289 3142.2315,-491.40404 C 3130.1407,-483.51901 3114.5971,-484.28317 3104.3118,-492.10028 C 3103.4179,-490.32289 3101.8271,-487.91719 3100.695,-486.49642 C 3102.0476,-476.81701 3112.4063,-470.91314 3122.5331,-470.8339"
         id="path19076"
         style="fill:#ffffff;fill-opacity:1;fill-rule:nonzero;stroke:none" />
      <path
         d="M 3109.2817,-507.81375 C 3108.8687,-507.44582 3108.4498,-507.08921 3108.0251,-506.75524 C 3108.0703,-503.37594 3107.046,-498.49095 3105.9986,-495.36071 C 3120.801,-482.62466 3151.9843,-490.31723 3149.9356,-516.15162 C 3139.2482,-505.69107 3122.001,-503.18914 3109.2817,-507.81375"
         id="path19078"
         style="fill:#ffffff;fill-opacity:1;fill-rule:nonzero;stroke:none" />
      <path
         d="M 3116.533,-523.37438 C 3116.6516,-518.64789 3114.7782,-514.04592 3112.1744,-510.39492 C 3131.4879,-504.80804 3155.3072,-514.71386 3153.773,-537.418 C 3147.9314,-531.53111 3135.9031,-524.44421 3116.533,-523.37438"
         id="path19080"
         style="fill:#ffffff;fill-opacity:1;fill-rule:nonzero;stroke:none" />
      <path
         d="M 3020.4576,-630.60066 C 3034.5974,-636.99699 3033.6017,-652.0878 3025.0824,-655.56333 C 3023.2199,-653.80292 3023.4522,-649.03115 3023.5482,-648.01226 C 3023.7746,-645.61222 3020.1465,-644.32164 3019.6144,-644.99523 C 3018.3578,-646.58016 3021.3805,-648.18774 3020.1125,-651.77081 C 3018.9012,-655.20672 3022.6145,-656.93882 3022.6145,-662.05589 C 3022.6145,-665.02763 3020.084,-670.03715 3019.7335,-670.97679 C 3018.5783,-674.05042 3018.6521,-680.02788 3020.3217,-682.94868 C 3019.0651,-684.10908 3017.0672,-685.80722 3015.1766,-682.9034 C 3012.6461,-679.00333 3013.5518,-674.14099 3015.3464,-670.37112 C 3015.1028,-670.25225 3012.7992,-670.32583 3011.4914,-666.18803 C 3011.4688,-666.11444 3010.4444,-664.81254 3010.4444,-664.81254 L 3009.5954,-664.78423 C 3008.984,-667.76164 3010.0029,-669.61261 3010.7841,-671.36736 C 3010.5518,-672.05228 3009.6579,-675.0127 3009.4654,-679.65429 C 3007.0708,-685.71665 3002.5252,-691.73939 2999.4006,-692.09034 C 3002.0724,-688.22424 3006.9236,-679.01465 3007.4385,-677.76935 C 3008.4972,-675.18252 3006.2045,-674.72968 3006.2045,-674.72968 C 3002.6384,-682.33735 2998.6027,-688.98274 2995.5402,-692.0394 C 2993.4744,-694.10547 2991.1816,-694.7734 2990.4231,-693.45451 C 2991.3515,-693.14885 2992.4894,-692.04506 2993.3666,-690.96957 C 2996.6329,-686.94497 3003.3064,-673.23532 3003.3064,-673.23532 C 3003.3064,-673.23532 3002.7856,-672.5504 3002.1462,-672.65229 C 3001.0707,-672.8221 2999.695,-674.80893 2998.0707,-678.53351 C 2996.3213,-681.94112 2993.05,-686.79214 2991.2722,-688.81859 C 2989.8005,-690.49975 2988.5271,-689.9337 2987.6042,-689.2035 C 2988.5552,-687.51102 2989.5741,-685.54684 2990.0382,-683.98455 C 2992.4727,-684.6355 2995.5859,-681.9864 2995.9423,-679.61466 C 2996.2987,-677.23727 2997.1251,-670.74471 2998.6254,-668.51448 C 2998.0707,-668.21448 2996.6555,-667.17295 2996.6555,-667.17295 C 2995.014,-669.19374 2993.8421,-676.55801 2993.5876,-679.20711 C 2993.5255,-679.86373 2992.7272,-681.21658 2991.1422,-681.64111 C 2990.3498,-681.85055 2990.2026,-681.34677 2990.18,-680.78638 C 2989.5007,-665.98425 2990.3951,-662.24268 3003.5387,-651.98025 C 3004.3991,-651.30666 3005.8767,-649.42738 3006.8444,-647.45754 C 3007.8121,-645.49335 3009.4763,-643.12728 3012.6294,-643.52917 L 3013.8801,-642.23858 C 3011.0331,-639.95175 3006.8331,-641.36121 3005.8368,-642.6518 C 3005.0444,-643.682 3002.8762,-646.88017 3002.8762,-646.88017 C 2993.7175,-637.18378 3005.9614,-624.04583 3020.4576,-630.60066"
         id="path19082"
         style="fill:#ffffff;fill-opacity:1;fill-rule:nonzero;stroke:none" />
      <path
         d="M 3035.6163,-426.0143 C 3030.0183,-413.96316 3025.0145,-409.10081 3018.6915,-400.21954 C 3014.9275,-394.93266 3016.3141,-392.37412 3018.8899,-388.96652 C 3024.0237,-382.72302 3033.2901,-379.6041 3040.1393,-381.56829 L 3040.0881,-382.47396 C 3031.8804,-381.67018 3024.6522,-384.73815 3020.905,-390.31371 L 3021.5276,-390.90806 C 3031.1278,-383.35134 3043.762,-385.44571 3048.6132,-387.925 C 3049.9378,-388.60425 3050.8774,-390.43824 3050.6904,-392.09676 C 3050.2321,-396.06475 3047.996,-402.75543 3047.5545,-406.53096 C 3047.1981,-409.61592 3048.313,-414.98204 3050.6166,-421.31611 C 3046.7339,-421.21988 3037.9489,-422.27273 3035.6163,-426.0143"
         id="path19084"
         style="fill:#ffffff;fill-opacity:1;fill-rule:nonzero;stroke:none" />
      <path
         d="M 3158.6469,-626.93833 C 3165.5074,-622.31939 3166.7468,-612.93999 3166.9564,-609.05125 C 3173.6865,-622.26845 3163.5882,-630.15348 3158.2452,-631.80068 C 3159.1617,-630.03461 3159.0829,-627.39117 3158.6469,-626.93833"
         id="path19086"
         style="fill:#ffffff;fill-opacity:1;fill-rule:nonzero;stroke:none" />
      <path
         d="M 3169.0562,-583.47159 C 3181.8942,-591.14152 3173.5113,-606.92857 3171.4395,-608.2418 C 3170.9242,-606.60593 3169.26,-602.45114 3164.5677,-596.92086 C 3167.3468,-593.57552 3168.9204,-588.83205 3169.0562,-583.47159"
         id="path19088"
         style="fill:#ffffff;fill-opacity:1;fill-rule:nonzero;stroke:none" />
      <path
         d="M 3076.8019,-618.24951 C 3086.1077,-614.04378 3096.4211,-612.43621 3106.5986,-612.41357 C 3133.8993,-612.34564 3152.8392,-620.23634 3154.3051,-628.39307 C 3155.5277,-635.20262 3143.024,-639.37438 3129.4216,-640.14421 C 3127.4405,-637.99323 3124.7234,-637.28567 3124.0668,-637.23473 C 3123.0706,-637.16114 3122.4312,-637.91398 3123.5293,-638.48569 C 3125.5784,-639.54986 3127.5935,-641.31593 3125.3859,-645.10844 C 3126.835,-645.34052 3131.8221,-647.15187 3132.2292,-655.7388 C 3132.5575,-662.55967 3128.9181,-666.77672 3125.8727,-668.7409 C 3125.8727,-668.7409 3124.684,-670.02583 3126.1784,-670.21828 C 3126.9369,-678.47125 3121.3503,-685.46759 3110.9517,-687.60159 L 3111.0251,-688.4733 C 3111.4272,-688.50726 3111.6536,-688.93746 3111.5798,-689.34501 C 3111.2176,-691.38278 3103.7009,-692.23185 3100.7176,-689.46954 C 3100.0836,-688.88085 3102.1952,-688.26386 3102.778,-688.24122 C 3103.5365,-688.21858 3104.0745,-687.19403 3102.9986,-687.21668 C 3097.0437,-687.31856 3085.9778,-682.07131 3086.4079,-667.70504 C 3086.7757,-667.71636 3089.8663,-668.62769 3091.1061,-668.27674 C 3091.9439,-668.04466 3091.6609,-667.02012 3090.9649,-666.96918 C 3081.1437,-666.21067 3077.0682,-648.99152 3090.6533,-642.87822 C 3090.6533,-642.87822 3091.3498,-642.4933 3090.4722,-641.93858 C 3088.8533,-640.90837 3087.6247,-638.8423 3090.0646,-637.44983 C 3090.9418,-636.94604 3091.6269,-636.30641 3091.2193,-635.49696 C 3090.8118,-634.68752 3089.4361,-634.7328 3088.1002,-635.40074 C 3081.3534,-638.77438 3073.4455,-636.98567 3067.315,-635.0045 C 3071.8547,-631.1101 3075.1776,-624.78735 3076.8019,-618.24951"
         id="path19090"
         style="fill:#ffffff;fill-opacity:1;fill-rule:nonzero;stroke:none" />
      <path
         d="M 3007.8234,-662.62193 C 3007.5404,-662.32759 3005.5085,-663.68044 3004.3139,-664.52951 C 3002.3839,-665.42387 3000.3348,-665.07858 3000.261,-665.68425 C 3000.2162,-666.05784 3001.9592,-666.51634 3003.584,-666.51634 C 3004.7215,-666.44275 3005.8481,-665.57104 3007.0088,-665.66727 C 3007.3824,-664.86914 3008.2314,-663.04081 3007.8234,-662.62193"
         id="path19092"
         style="fill:#292526;fill-opacity:1;fill-rule:nonzero;stroke:none" />
      <path
         d="M 3042.9863,-406.497 C 3039.4713,-407.54984 3034.9882,-408.09325 3032.1073,-408.17816 L 3032.2087,-411.77822 C 3035.3392,-411.69331 3040.2131,-411.0933 3044.0563,-409.94988 L 3042.9863,-406.497"
         id="path19094"
         style="fill:#292526;fill-opacity:1;fill-rule:nonzero;stroke:none" />
      <path
         d="M 3045.0358,-413.69711 C 3040.1619,-415.15186 3039.2223,-415.30469 3033.8675,-415.53111 L 3034.0201,-419.13117 C 3039.6919,-418.89343 3040.9317,-418.68965 3046.1054,-417.14434 L 3045.0358,-413.69711"
         id="path19096"
         style="fill:#292526;fill-opacity:1;fill-rule:nonzero;stroke:none" />
      <path
         d="M 3119.8894,-655.4671 C 3119.5896,-655.39351 3119.0403,-655.12747 3118.6953,-654.7652 C 3109.2138,-656.469 3106.2422,-653.89915 3101.165,-654.035 C 3101.2325,-654.67463 3101.012,-655.55767 3100.1742,-655.4671 C 3099.874,-655.4388 3099.4777,-654.74822 3099.3306,-654.52746 C 3098.0006,-652.55196 3097.4853,-651.45949 3098.0006,-651.00099 C 3098.5494,-650.51419 3099.2287,-651.29533 3099.9251,-652.09912 C 3100.7683,-652.19535 3102.6929,-652.13874 3104.5328,-650.8991 C 3106.1177,-649.83493 3109.3668,-645.73675 3112.769,-647.18583 C 3115.1292,-648.28396 3117.3879,-652.34252 3119.1255,-652.34818 C 3119.9632,-652.35384 3121.0047,-652.21799 3121.18,-652.31988 C 3121.5762,-652.54064 3120.7896,-655.67654 3119.8894,-655.4671 z M 3112.5593,-649.07643 C 3109.6779,-647.59339 3107.9232,-651.35194 3105.1101,-652.59158 C 3107.7081,-653.25952 3112.927,-653.77462 3116.9292,-653.04442 C 3115.9837,-652.3029 3113.3685,-649.48964 3112.5593,-649.07643"
         id="path19098"
         style="fill:#292526;fill-opacity:1;fill-rule:nonzero;stroke:none" />
      <path
         d="M 3116.6516,-679.33164 C 3113.3006,-678.95805 3110.9803,-674.59949 3111.3647,-669.42016 C 3111.597,-666.22199 3112.8365,-663.38044 3114.6704,-661.81815 C 3115.7065,-660.92945 3116.878,-660.51058 3118.0559,-660.61247 C 3121.4123,-660.90115 3123.7444,-665.27669 3123.3649,-670.56923 C 3123.1272,-673.824 3121.8878,-676.68254 3120.037,-678.21653 C 3118.9955,-679.08258 3117.8236,-679.46749 3116.6516,-679.33164"
         id="path19100"
         style="fill:#292526;fill-opacity:1;fill-rule:nonzero;stroke:none" />
      <path
         d="M 3120.4387,-664.64838 C 3120.4387,-664.6031 3120.4441,-664.56914 3120.4613,-664.56348 C 3120.4781,-664.55782 3120.4899,-664.56348 3120.5066,-664.58046 C 3121.3272,-666.05784 3121.7687,-668.18052 3121.6102,-670.4447 C 3121.4123,-673.12211 3120.3993,-675.52781 3118.9611,-676.72216 C 3118.2764,-677.28821 3117.5691,-677.53727 3116.85,-677.45237 C 3114.5292,-677.19198 3112.8251,-673.57494 3113.1195,-669.55601 C 3113.148,-669.18808 3113.1933,-668.82581 3113.2499,-668.47486 C 3113.2667,-668.41826 3113.2893,-668.38995 3113.3178,-668.38995 C 3113.3518,-668.38995 3113.3857,-668.44656 3113.3971,-668.5258 C 3113.6461,-671.26547 3115.078,-673.40513 3116.8894,-673.50702 C 3118.9498,-673.63155 3120.7217,-671.03339 3120.8462,-667.70504 C 3120.8802,-666.59558 3120.733,-665.55406 3120.4387,-664.64838"
         id="path19102"
         style="fill:#ffffff;fill-opacity:1;fill-rule:nonzero;stroke:none" />
      <path
         d="M 3101.6912,-678.99201 C 3098.1423,-678.66371 3095.51,-674.27684 3095.697,-668.99562 C 3095.8098,-665.81444 3096.9645,-662.9276 3098.7872,-661.2804 C 3099.874,-660.29548 3101.1365,-659.82 3102.4212,-659.89925 C 3105.976,-660.13699 3108.6196,-664.54649 3108.4385,-669.93526 C 3108.3253,-673.17871 3107.1647,-676.08253 3105.3252,-677.70143 C 3104.2384,-678.66371 3102.9759,-679.11088 3101.6912,-678.99201"
         id="path19104"
         style="fill:#292526;fill-opacity:1;fill-rule:nonzero;stroke:none" />
      <path
         d="M 3105.8514,-665.3333 C 3105.8514,-665.305 3105.8628,-665.27669 3105.8745,-665.27669 C 3105.8967,-665.27103 3105.9139,-665.29368 3105.9366,-665.3333 C 3106.446,-666.64087 3106.7177,-668.22014 3106.6611,-669.873 C 3106.5705,-672.53342 3105.625,-674.97308 3104.1931,-676.24102 C 3103.6837,-676.68254 3102.8686,-677.19764 3101.8438,-677.10142 C 3099.3251,-676.86934 3097.3268,-673.19569 3097.4744,-669.08053 C 3097.5419,-667.20125 3098.0685,-665.66727 3098.6798,-664.52951 C 3098.7306,-664.46725 3098.7817,-664.42762 3098.8103,-664.44461 C 3098.8325,-664.45593 3098.8438,-664.48423 3098.8438,-664.52951 C 3098.6287,-665.21443 3098.4987,-665.96727 3098.4647,-666.75974 C 3098.3117,-670.03149 3099.8627,-672.73719 3101.9235,-672.81644 C 3103.9839,-672.89003 3105.7726,-670.27489 3105.9194,-666.96918 C 3105.942,-666.40313 3105.9194,-665.85406 3105.8514,-665.3333"
         id="path19106"
         style="fill:#ffffff;fill-opacity:1;fill-rule:nonzero;stroke:none" />
    </g>
  </g>
</svg>
