<svg version="1.2" xmlns="http://www.w3.org/2000/svg" viewBox="0 0 1536 509" width="1536" height="509">
	<title>Oshkosh_Corporation_logo-svg</title>
	<defs>
		<clipPath clipPathUnits="userSpaceOnUse" id="cp1">
			<path d="m0.23-1.04h235.4v394.15h-235.4z"/>
		</clipPath>
		<clipPath clipPathUnits="userSpaceOnUse" id="cp2">
			<path d="m132.17 108.42h232.77v401.05h-232.77z"/>
		</clipPath>
	</defs>
	<style>
		.s0 { fill: #211e1e } 
	</style>
	<g id="layer1">
		<g id="g248762">
			<path id="path248310" fill-rule="evenodd" class="s0" d="m486.3 234.3c0-21 17-38 38-38h50.2c20.9 0 38 17 38 38v104.1c0 21-17.1 38-38 38h-50.2c-21 0-38-17-38-38zm82.3-7.2h-38.5c-5.7 0-8.4 2.6-8.4 8.4v101.6c0 5.7 2.9 8.6 8.4 8.6h38.5c5.6 0 8.4-2.7 8.4-8.4v-101.8c0-5.8-2.7-8.4-8.4-8.4z"/>
			<path id="path248312" class="s0" d="m766.3 307.9v31.4c0 23.9-13.7 37.1-38.4 37.1h-49.3c-24.2 0-37.6-13.2-37.6-37.1v-17.7h35v17.2c0 5.1 2.7 7.4 8.4 7.4h38.2c5.8 0 8.4-2.3 8.4-7.4v-24.4c0-4.5-1.4-6.3-6.2-7.4l-58.6-15.4c-8.8-2.2-23.6-9.5-23.6-32.8v-25.4c0-23.9 13.6-37.1 38.3-37.1h46c23.9 0 37.6 13.5 37.6 37.1v19.3h-35v-18.8c0-5-2.6-7.4-8.4-7.4h-35.2c-5.7 0-8.4 2.4-8.4 7.4v19.9c0 5.5 1.1 6.9 6 8.2l57.3 14.8c16.4 4.4 25.5 15.4 25.5 31.1z"/>
			<path id="path248314" class="s0" d="m1026.5 286l61.2 90.3h-40.5l-0.4-0.6-47.8-73.7h-6.7v74.4h-35.8v-180.1h35.8v74.5h6.2l48.3-74.5h40.5z"/>
			<path id="path248316" fill-rule="evenodd" class="s0" d="m1101.1 234.3c0-21 17-38 38-38h50.2c21 0 38 17 38 38v104.1c0 21-17 38-38 38h-50.2c-21 0-38-17-38-38zm82.3-7.2h-38.4c-5.8 0-8.4 2.6-8.4 8.4v101.6c0 5.7 2.8 8.6 8.4 8.6h38.4c5.7 0 8.4-2.7 8.4-8.4v-101.8c0-5.8-2.6-8.4-8.4-8.4z"/>
			<path id="path248318" class="s0" d="m1381.1 307.9v31.4c0 23.9-13.6 37.1-38.3 37.1h-49.3c-24.3 0-37.6-13.2-37.6-37.1v-17.7h35v17.2c0 5.1 2.7 7.4 8.4 7.4h38.2c5.8 0 8.4-2.3 8.4-7.4v-24.4c0-4.5-1.5-6.3-6.2-7.4l-58.6-15.4c-8.9-2.2-23.7-9.5-23.7-32.8v-25.4c0-23.9 13.6-37.1 38.3-37.1h46c23.9 0 37.6 13.5 37.6 37.1v19.3h-34.9v-18.8c0-5-2.7-7.4-8.4-7.4h-35.2c-5.8 0-8.4 2.4-8.4 7.4v19.9c0 5.5 1.1 6.9 6 8.2l57.3 14.8c16.4 4.4 25.4 15.4 25.4 31.1z"/>
			<path id="path248320" class="s0" d="m885.6 196.3h35.5v180.1h-35.5v-74.4h-55.3v74.4h-35.5v-180.1h35.5v74.5h55.3z"/>
			<path id="path248322" class="s0" d="m1500.4 196.3h35.5v180.1h-35.5v-74.4h-55.2v74.4h-35.5v-180.1h35.5v74.5h55.2z"/>
			<g id="Clip-Path: g248326" clip-path="url(#cp1)">
				<g id="g248326">
					<path id="path248324" class="s0" d="m158.5 1.9l69.2 31.8v82.1l-88.8 75.5c-4.1 3.5-6.4 8.5-6.4 13.8v187.5l-121.6-55.1c-6.5-2.9-10.7-9.4-10.7-16.5v-165c0-21.3 9.4-41.5 25.6-55.3l113.4-96.2c5.4-4.5 12.9-5.5 19.3-2.6z"/>
				</g>
			</g>
			<g id="Clip-Path: g248330" clip-path="url(#cp2)">
				<g id="g248330">
					<path id="path248328" class="s0" d="m334.5 407.7l-113.4 96.2c-5.4 4.5-12.9 5.6-19.3 2.6l-69.3-31.8v-82.1l88.9-75.5c4-3.4 6.3-8.5 6.3-13.8v-187.5l121.7 55.1c6.5 2.9 10.7 9.4 10.7 16.5v165c0 21.3-9.4 41.5-25.6 55.3z"/>
				</g>
			</g>
		</g>
	</g>
</svg>