<svg version="1.2" xmlns="http://www.w3.org/2000/svg" viewBox="0 0 1560 1420" width="1560" height="1420">
	<title>Techtronic_Industries_logo-svg</title>
	<style>
		.s0 { fill: #a3aeac } 
		.s1 { fill: #d3222a } 
		.s2 { fill: #475254 } 
	</style>
	<g id="#a3aeacff">
		<path id="Layer" class="s0" d="m1334.8 0h3.7c43.3 0.6 87.7 6.7 126.7 26.5 29.5 14.8 54.8 38.3 70.6 67.5 15.8 28.4 22.6 61 24.2 93.3v22.8c-2.2 58.5-18.3 115.6-39.6 169.9-5.2 13.7-11.6 26.9-16.3 40.8 0-7.4 2.6-14.3 4.4-21.4 7.8-32.9 11.7-67 9.1-100.8-2.6-34.8-13-69.5-32.9-98.5-17-25-40.6-45.1-67.1-59.4-32.7-17.7-69.1-27.2-105.8-31.8-51.6-6.3-104-3.6-155.3 3.7-88.3 13.2-174.1 40.1-256.7 73.7-127.1 52.3-247.1 121-359.1 200.5-15.7 11-30.7 23-46.4 34 10.3-9.4 20.9-18.5 31.7-27.2 95.2-79.6 196.2-152.6 302.9-216 82.2-48.6 167.8-92 257.5-125.1 79.6-29.2 163.1-51.3 248.4-52.5zm-1334.8 1213.8c2.7-74.8 26.7-147.1 57.5-214.7-12.8 44.8-19.7 92.2-13 138.7 4.6 32.3 16.5 63.9 36.5 89.9 20.4 27 48.8 47.3 79.7 60.7 36.6 16 76.4 23.1 116.1 25.6 49.5 2.9 99.1-0.9 148.3-6.4 91.4-11.3 181.4-32.8 268.7-62 74.6-25 147.3-56 216.9-92.5 62.8-33.2 123.5-70.7 179.8-114.1-14.8 15-32 27.2-48.1 40.7-32.3 25.9-65.6 50.6-99.6 74.1-136.3 93.4-285.5 168.7-443.2 218.2-83.6 25.8-170 44.7-257.7 48h-30.7c-42.3-1.3-85.5-8.9-122.9-29.8-28.9-16-52.9-40.8-67.4-70.6-14.2-28.4-19.6-60.2-20.9-91.7z"/>
	</g>
	<g id="#d3222aff">
		<path id="Layer" class="s1" d="m1297.1 257.8c26.6-5 55.2 3.4 75.1 21.6 18.5 16.6 29.6 41.1 29.3 65.9 0.3 19.7-6.5 39.3-18.5 54.8-16.6 21.6-43.4 35-70.6 34.5-26.8 0.4-53.2-12.6-69.6-33.6-13.8-17.2-20.8-39.6-19.1-61.5 1.8-39.9 34.1-75.5 73.4-81.7z"/>
	</g>
	<g id="#475254ff">
		<path id="Layer" class="s2" d="m129 516.8c2.1-10.5 12-19.3 22.9-19.3 325.8 0 651.5 0 977.3 0.1 8.2-0.7 15.3 7.5 13.2 15.6-7.6 29.8-15.9 59.5-23.7 89.2-2.7 10.8-13.5 18.9-24.7 18.2-54.6-0.1-109.3 0.1-163.9-0.1-27.6 103.4-55.3 206.8-83 310.2-1.9 7.3-3.1 15.4-8.8 20.9-4.1 3.9-9.5 7.2-15.4 7.2q-90.7 0-181.4 0c-8.5 0.5-15.1-8.8-12.3-16.8 28.4-107.3 57.6-214.4 85.8-321.7-71.1 0.8-142.2 0.1-213.4 0.3-27.9 103-55.7 206-83.6 309-2.1 7.1-2.9 15-8 20.8-4.5 5.1-11 9-18 8.5q-90.7 0-181.4 0c-5.3 0.5-10.6-2.8-12.4-7.8-1.7-4.3-0.5-8.9 0.6-13.1 28.7-105.8 57.2-211.7 85.9-317.5-55.3 0.2-110.6 0.1-165.9 0.1-8.2 0.6-15.4-7.7-13.2-15.8 7.5-29.4 15.6-58.6 23.4-88zm1064.9-19c50.6-0.5 101.2-0.1 151.8-0.2 8.8-0.9 16.2 8.6 13.2 16.9-36.4 137.9-73 275.6-109.4 413.5-2.5 7.6-2.9 16.4-8.6 22.6-4.6 5-11.2 8.8-18.2 8.3-49.5-0.1-98.9-0.1-148.3 0-5.8 0.4-11.4-3.6-12.9-9.2-1.6-5 0.7-10.1 1.9-15 36.8-139.2 73.7-278.5 110.5-417.8 2-9.6 10.3-17.6 20-19.1z"/>
	</g>
</svg>